<?xml version="1.0" encoding="utf-8"?>
<svg version="1.1" xmlns:xlink="http://www.w3.org/1999/xlink" width="172px" height="193px" xmlns="http://www.w3.org/2000/svg">
  <g transform="matrix(1 0 0 1 -869 -1706 )">
    <path d="M 0 34.6513669552724  C 0.368692077203679 30.7436757217736  8.32472855099803 34.3825007434534  14.5493365868538 28.9869181151358  C 23.0643493737143 21.6059786554884  16.8182649033694 18.3640517579922  25.0571907884703 10.3751576404011  C 32.4500262861838 3.20667708314698  31.9138503013306 4.0432980636015  42.0314168064664 1.47388089161486  C 51.8484541578598 -1.01921508515979  54.4252961211937 1.29585535663913  60.6222357785572 1.20684258915123  C 65.7414467998577 1.29585535663913  68.3369678790984 -1.30998485044013  75.9798688424585 1.47388089161486  C 86.8466411148897 5.43201605533864  87.2960195211225 10.6448932994551  92.9540948604545 15.2303995033753  C 97.2650094047074 18.1974917529707  101.57592394896 21.1645840025661  105.886838493213 24.1316762521615  C 108.04229576534 25.7500902064863  109.702083630152 25.5237269075914  112.353210309593 28.9869181151358  C 116.636236537607 34.5818747385095  113.036157391817 35.3829720035038  117.202989171877 41.1250227725715  C 121.231834803078 46.6769234434338  120.653058600993 46.8426583799381  126.902546896447 49.2170925441953  C 132.50634312465 51.3462020944062  133.247294172586 46.8572689635076  138.218697575111 49.5650515443751  C 143.211341536112 52.284403255646  142.529612119364 55.8067346948876  144.68506939149 58.9275762701439  C 146.840526663616 62.1644041787935  149.340857099283 62.65137083437  151.151441207869 68.6380599960925  C 153.411186768578 76.109899714773  152.308764292011 75.2150171627484  151.151441207869 83.2037855850153  C 149.340857099283 95.701883437493  144.022444416499 93.0542810645396  144.68506939149 105.0523739684  C 145.17016313372 113.835924251036  149.198034900534 111.453490155513  151.151441207869 120.427306534485  C 152.668217976323 127.395276360774  150.104878989307 126.376353956921  151.547506481623 133.374618169083  C 153.388731770223 142.306501910637  155.59437751004 143.62457321314  157.617813024249 148.749550735168  C 157.617813024249 151.177171666655  157.617813024249 153.604792598142  157.617813024249 156.03241352963  C 157.617813024249 160.078448415441  160.654254883584 163.251917763589  157.617813024249 168.170518187065  C 152.18606069849 176.969178107906  144.68506939149 174.644174004364  138.218697575111 177.881001913014  C 136.832340227409 178.587334608676  135.445982879708 179.293667304338  134.059625532007 180  C 133.180351513724 179.506758474991  132.301077495442 179.013516949981  131.42180347716 178.520275424972  C 131.236773640269 177.881080097263  131.051743803378 177.241884769554  130.866713966488 176.602689441844  C 133.317375169362 173.791965690251  138.296078577877 172.822607307347  138.218697575111 168.170518187065  C 138.103907910569 161.269447763512  131.90033576367 163.704179732432  126.902546896447 156.03241352963  C 119.482428320631 144.642293533954  121.083786168806 146.521827002417  117.202989171877 133.374618169083  C 112.679177875491 118.049031212778  120.523634970121 117.251335869069  112.353210309593 105.0523739684  " stroke-width="12" stroke="#dd125b" fill="none" transform="matrix(1 0 0 1 875 1712 )" />
  </g>
</svg>