<?xml version="1.0" encoding="utf-8"?>
<svg version="1.1" xmlns:xlink="http://www.w3.org/1999/xlink" width="177px" height="199px" xmlns="http://www.w3.org/2000/svg">
  <g transform="matrix(1 0 0 1 -856 -3989 )">
    <path d="M 0 35.8064125204482  C 0.380286167681783 31.7684649124994  8.58651246769608 35.5285841015685  15.0068628946165 29.9531487189737  C 23.789643379177 22.3261779440047  17.3471411581923 18.9761868165919  25.8451527629505 10.7209962284144  C 33.4704673643657 3.31356631925188  32.9174304994857 4.17807466572155  43.3531594733364 1.52301025466869  C 53.4789086911258 -1.05318892133178  56.1367834206023 1.33905053519377  62.5285953942351 1.24707067545627  C 67.8087878941928 1.33905053519377  70.4859291331581 -1.35365101212147  78.3691728941082 1.52301025466869  C 89.5776675650434 5.61308325718326  90.0411773676987 10.9997230761037  95.8771796044939 15.7380794868212  C 100.323657499195 18.8040748114031  104.770135393896 21.870070135985  109.216613288597 24.9360654605669  C 111.439852235948 26.6084265467025  113.151834687704 26.3745178045112  115.886330130649 29.9531487189737  C 120.304042718035 35.7346038964598  116.590753536213 36.5624044036206  120.888617762188 42.4958568649906  C 125.044156652231 48.2328208915482  124.447179940647 48.404080325936  130.893193025266 50.8576622956685  C 136.673209260645 53.0577421642198  137.437460656001 48.4191779289578  142.565197498856 51.2172199291876  C 147.714842842279 54.0272166975009  147.011675393557 57.6669591847172  149.234914340908 60.891828812482  C 151.458153288258 64.2365509847532  154.037110467185 64.7397498621824  155.90463118296 70.9259953292956  C 158.235437924823 78.6468963719321  157.098348074779 77.7221844015067  155.90463118296 85.9772451045158  C 154.037110467185 98.8919462187428  148.551452102553 96.1560904333575  149.234914340908 108.554119767346  C 149.735262603334 117.630455059403  153.889797004324 115.16860649403  155.90463118296 124.441550085634  C 157.469105334069 131.6417855728  154.825158202807 130.588899088818  156.313151339535 137.820438774719  C 158.212276794443 147.050051974325  160.487282463186 148.412058986911  162.574348025011 153.707869093007  C 162.574348025011 156.21641072221  162.574348025011 158.724952351414  162.574348025011 161.233493980617  C 162.574348025011 165.414396695956  165.706275477407 168.693648355709  162.574348025011 173.776202126634  C 156.971785877688 182.868150711503  149.234914340908 180.465646471176  142.565197498856 183.810368643448  C 141.135244008145 184.540245762298  139.705290517435 185.270122881149  138.275337026724 186  C 137.368412882081 185.490317090824  136.461488737437 184.980634181647  135.554564592794 184.470951272471  C 135.363716207573 183.810449433838  135.172867822353 183.149947595205  134.982019437132 182.489445756572  C 137.509745457707 179.58503121326  142.645011866489 178.583360884258  142.565197498856 173.776202126634  C 142.446798096436 166.645096022296  136.048145064415 169.160985723513  130.893193025266 161.233493980617  C 123.239737387317 149.463703318419  124.891452400529 151.405887902497  120.888617762188 137.820438774719  C 116.222548248934 121.98399891987  124.313686384276 121.159713731371  115.886330130649 108.554119767346  " stroke-width="12" stroke="#dd125b" fill="none" transform="matrix(1 0 0 1 862 3995 )" />
  </g>
</svg>