<?xml version="1.0" encoding="utf-8"?>
<svg version="1.1" xmlns:xlink="http://www.w3.org/1999/xlink" width="18px" height="18px" xmlns="http://www.w3.org/2000/svg">
  <g transform="matrix(1 0 0 1 -39 -176 )">
    <path d="M 17.9999999748745 18  C 18.0002486317419 14.6781125136739  16.1548387190794 11.6286082142344  13.2049707231724 10.0763066142271  C 12.0814169515231 11.057969154331  10.613340976709 11.653110074881  9.00000004719009 11.653110074881  C 7.38665911767113 11.653110074881  5.91729759099495 11.057969154331  4.79374381934567 10.0763066142271  C 1.84437357647491 11.6289531818677  -0.000500413115648308 14.6783894242454  0 18  L 17.9999999748745 18  Z M 3.75117847063997 5.30750004384281  C 3.75117813292622 8.19400054245266  6.10074009931107 10.5343677853191  9.00000004719008 10.5357809988284  C 11.8983422882212 10.5350746111476  14.2475367016491 8.19564650689902  14.2475367016491 5.31005993575019  C 14.2475367016491 5.30920663840764  14.2475364917254 5.30835334108299  14.2475360718781 5.30750004384281  C 14.2479645708133 5.28024252221227  14.2481788301201 5.25298207958826  14.2481788301201 5.22572121965744  C 14.2481788301201 2.33963508317346  11.8982013728011 0  8.99935727125904 0  C 6.10051316971699 0  3.75053571239798 2.33963508317346  3.75053571239798 5.22572121965744  C 3.75053571239798 5.25298207958826  3.75074997170473 5.28024252221227  3.75117847063997 5.30750004384281  Z " fill-rule="nonzero" fill="#cccccc" stroke="none" transform="matrix(1 0 0 1 39 176 )" />
  </g>
</svg>