<?xml version="1.0" encoding="utf-8"?>
<svg version="1.1" xmlns:xlink="http://www.w3.org/1999/xlink" width="15px" height="18px" xmlns="http://www.w3.org/2000/svg">
  <g transform="matrix(1 0 0 1 -41 -246 )">
    <path d="M 11.2511408649463 7.49897330799673  L 3.75114086494627 7.49897330799673  L 3.75114086494627 5.25872689874989  C 3.75798601002797 4.63244352928657  3.97931244942874 1.50102670203659  7.50228172989255 1.50102670203659  C 11.0252510103564 1.50102670203659  11.2442957198646 4.63244352928657  11.2534225948388 5.24845997537288  L 11.2511408649463 7.49897330799673  Z M 8.99908730804298 11.9979465925824  C 9.00136903793553 12.5503079973447  8.69790081295845 13.0287474173393  8.25068451896777 13.289527704555  L 8.25068451896777 15.7474332465808  L 6.75159721092479 15.7474332465808  L 6.75159721092479 13.289527704555  C 6.30438089463612 13.0287474173393  6.00091269195702 12.5503079973447  6.00091269195702 11.9979465925824  C 6.00091269195702 11.1683777951079  6.67173715524102 10.4969198905458  7.5 10.4969198905458  C 8.32826284475897 10.4969198905458  8.99908730804298 11.1683777951079  8.99908730804298 11.9979465925824  Z M 15 7.49897330799673  L 12.7502281729893 7.49897330799673  L 12.7502281729893 5.24845995530622  C 12.7502281729893 5.24845995530622  12.7502281729893 0  7.5 0  C 2.24977182701074 0  2.24977182701074 5.24845995530622  2.24977182701074 5.24845995530622  L 2.24977182701074 7.49897330799673  L 0 7.49897330799673  L 0 18  L 15 18  L 15 7.49897330799673  Z " fill-rule="nonzero" fill="#cccccc" stroke="none" transform="matrix(1 0 0 1 41 246 )" />
  </g>
</svg>