<?xml version="1.0" encoding="utf-8"?>
<svg version="1.1" xmlns:xlink="http://www.w3.org/1999/xlink" width="300px" height="50px" xmlns="http://www.w3.org/2000/svg">
  <g transform="matrix(1 0 0 1 -25 -230 )">
    <path d="M 26 255  A 24 24 0 0 1 50 231 L 300 231  A 24 24 0 0 1 324 255 A 24 24 0 0 1 300 279 L 50 279  A 24 24 0 0 1 26 255 Z " fill-rule="nonzero" fill="#ffffff" stroke="none" fill-opacity="0.498039215686275" />
    <path d="M 25.5 255  A 24.5 24.5 0 0 1 50 230.5 L 300 230.5  A 24.5 24.5 0 0 1 324.5 255 A 24.5 24.5 0 0 1 300 279.5 L 50 279.5  A 24.5 24.5 0 0 1 25.5 255 Z " stroke-width="1" stroke="#cccccc" fill="none" stroke-opacity="0.698039215686274" />
  </g>
</svg>