<?xml version="1.0" encoding="utf-8"?>
<svg version="1.1" xmlns:xlink="http://www.w3.org/1999/xlink" width="258px" height="289px" xmlns="http://www.w3.org/2000/svg">
  <g transform="matrix(1 0 0 1 -1166 -537 )">
    <path d="M 0 51.5920352445168  C 0.549559888662088 45.7739171857518  12.4085576514876 51.1917233291417  21.6867469879519 43.1583003047577  C 34.3789358589327 32.1689015537272  25.0687344786072 27.3420326174551  37.3493975903614 15.4474569312638  C 48.3689071058211 4.77438587935217  47.5697013925494 6.02002156136223  62.6506024096386 2.19444488307101  C 77.2835448768099 -1.51749801568235  81.1244979919679 1.92938464210715  90.3614457831325 1.79685452162516  C 97.9919678714859 1.92938464210715  101.86076344243 -1.95042188843308  113.253012048193 2.19444488307101  C 129.450653737288 8.08766834905975  130.120481927711 15.8490633569666  138.55421686747 22.6763725939144  C 144.979919678715 27.0940432766453  151.40562248996 31.5117139593763  157.831325301205 35.9293846421072  C 161.044176706827 38.339023196324  163.518200127962 38.0019933957473  167.469879518072 43.1583003047577  C 173.854012952283 51.4885690551141  168.487857244406 52.6813138718835  174.698795180723 61.2305894613843  C 180.704055649871 69.4967526824458  179.841351499594 69.7435135879078  189.156626506024 73.2787822324685  C 197.509454846176 76.4487897850048  198.613891313855 69.7652671234446  206.024096385542 73.7968545216252  C 213.465961912317 77.8456670695174  212.449799196787 83.0900272123882  215.66265060241 87.7366135577698  C 218.875502008032 92.5558906662036  222.602409638554 93.280929908951  225.301204819277 102.194444883071  C 228.669504805994 113.319184019773  227.026271303186 111.986803331203  225.301204819277 123.881191871023  C 222.602409638554 142.489470895823  214.674964318933 138.547485140537  215.66265060241 156.411312352951  C 216.385714859696 169.489042773764  222.389523719663 165.94186312043  225.301204819277 179.302878618011  C 227.562060757161 189.677411470486  223.74123471991 188.160349224748  225.89156626506 198.579987051746  C 228.636034148068 211.878569511393  231.923694779116 213.841031228452  234.939759036145 221.471553316806  C 234.939759036145 225.086011148131  234.939759036145 228.700468979457  234.939759036145 232.314926810782  C 234.939759036145 238.339023196324  239.465776147229 243.063966448011  234.939759036145 250.387215967408  C 226.843373493976 263.48744296066  215.66265060241 260.025770184276  206.024096385542 264.84504729271  C 203.957639206893 265.89669819514  201.891182028244 266.94834909757  199.824724849595 268  C 198.51410886008 267.265618173875  197.203492870565 266.53123634775  195.892876881049 265.796854521625  C 195.617077690212 264.845163700369  195.341278499375 263.893472879113  195.065479308538 262.941782057857  C 198.71835166754 258.756926694374  206.139437880231 257.313659768716  206.024096385542 250.387215967408  C 205.852994810094 240.11228889234  196.606160855282 243.737334268288  189.156626506024 232.314926810782  C 178.09644976094 215.356303706109  180.483379383691 218.154720203598  174.698795180723 198.579987051746  C 167.955755701203 175.761890916802  179.648437030935 174.574211182836  167.469879518072 156.411312352951  " stroke-width="20" stroke="#dd125b" fill="none" transform="matrix(1 0 0 1 1176 547 )" />
  </g>
</svg>