<?xml version="1.0" encoding="utf-8"?>
<svg version="1.1" xmlns:xlink="http://www.w3.org/1999/xlink" width="45px" height="50px" xmlns="http://www.w3.org/2000/svg">
  <g transform="matrix(1 0 0 1 -45.5 -242.5 )">
    <path d="M 0 8.47033414462215  C 0.0904339057292044 7.5151207319891  2.0419145502448 8.40461129284416  3.56870520054905 7.08569109481097  C 5.65729324260917 5.28146144911939  4.12523478761891 4.48899042973143  6.14610340094554 2.53614964543137  C 7.95944040981866 0.783854398102594  7.8279255456094 0.988361748880366  10.3095928015861 0.360281995728077  C 12.717545359475 -0.249141465261281  13.3496009353871 0.31676464273401  14.8696050022876 0.295005966236967  C 16.1252605358141 0.31676464273401  16.7618977816657 -0.320218518996476  18.6365716028672 0.360281995728077  C 21.3020063111993 1.32782614686056  21.4122312032942 2.6020850287557  22.8000610035077 3.72298654526952  C 23.8574551370037 4.44827576183728  24.9148492704997 5.17356497840506  25.9722434039957 5.89885419497282  C 26.5009404707437 6.29446649491886  26.9080582489051 6.23913324407791  27.5583346042397 7.08569109481097  C 28.6088882073376 8.45334715830232  27.7258499262947 8.64917093418983  28.7479030044228 10.0527833444064  C 29.7361104233964 11.409914619506  29.5941464493002 11.4504276039849  31.1270398047888 12.0308448441366  C 32.5015558607632 12.5512938452993  32.6832985706344 11.4539990799685  33.9026994052158 12.115901488625  C 35.1273101881029 12.7806319069357  34.9600935387118 13.6416462587503  35.4887906054598 14.404518643813  C 36.0174876722078 15.1957432437051  36.6307762696355 15.3147795372905  37.0748818057038 16.7781924434893  C 37.6291590187079 18.6046421525001  37.3587535055876 18.3858930842274  37.0748818057038 20.3387031430037  C 36.6307762696355 23.393793729165  35.3262599512168 22.7466020379986  35.4887906054598 25.6794691922755  C 35.607775862988 27.8265592613643  36.5957444095649 27.2441864824586  37.0748818057038 29.437786041763  C 37.446921390419 31.1410675548559  36.8181778653016 30.8919976339139  37.1720298917188 32.6026844413314  C 37.6236511889225 34.7860338003779  38.1646586345381 35.1082290076564  38.6609730059478 36.3610012908189  C 38.6609730059478 36.954419740738  38.6609730059478 37.547838190657  38.6609730059478 38.1412566405761  C 38.6609730059478 39.1302873904413  39.4057606318224 39.9060243422108  38.6609730059478 41.1083488901715  C 37.3286563977429 43.2591324263771  35.4887906054598 42.6907980899557  33.9026994052158 43.4820226898478  C 33.5626494897419 43.6546817932319  33.222599574268 43.8273408966159  32.8825496587941 44  C 32.6668786731777 43.8794298494422  32.4512076875613 43.7588596988843  32.2355367019449 43.6382895483265  C 32.1901520249717 43.4820418015531  32.1447673479985 43.3257940547798  32.0993826710253 43.1695463080064  C 32.7004882490888 42.4824805020614  33.9216796511773 42.2455262306847  33.9026994052158 41.1083488901715  C 33.8745434497623 39.421420564414  32.3529125458059 40.0165772679279  31.1270398047888 38.1412566405761  C 29.3070107201548 35.3570050860776  29.6997966074429 35.8164466005907  28.7479030044228 32.6026844413314  C 27.6382889128562 28.8564298520123  29.5624010304071 28.6614376568835  27.5583346042397 25.6794691922755  " stroke-width="5" stroke="#dd125b" fill="none" transform="matrix(1 0 0 1 48 245 )" />
  </g>
</svg>