<?xml version="1.0" encoding="utf-8"?>
<svg version="1.1" xmlns:xlink="http://www.w3.org/1999/xlink" width="37px" height="59px" xmlns="http://www.w3.org/2000/svg">
  <g transform="matrix(1 0 0 1 -126.5 -233.5 )">
    <path d="M 0.377657740489593 52.7077603812117  C 0.442007172634733 52.7481302933907  2.39658276826421 49.5809167233946  3.40604528215152 48.0174948944861  C 4.23736735241162 46.5743362831859  5.16567994962528 46.3032281873749  5.90001149293191 43.6880190605854  C 6.69315455616153 40.8633617287378  5.99264452361796 40.0801225323349  6.03896103896104 38.2761742682097  C 5.6957437842394 37.013410483322  2.89417337451405 38.3369148046979  5.00930927479604 34.4878829135466  C 7.12444517507803 30.6388510223953  8.33459755583653 28.4747220331291  9.99724169635682 25.4681415929204  C 10.5316630272384 24.5060358520536  10.2745459929218 23.6564366532376  11.6005056890013 22.58182437032  C 13.1087045818324 21.3595179456895  13.759913792739 22.7738548463284  15.1633145615447 21.4994554118448  C 17.0607527023176 19.7764307795965  15.5022402404174 19.0471598497543  17.1228594414436 16.8091899251191  C 19.1589267926602 13.9975130711925  19.9288695622154 15.4852391070053  21.9326514193771 12.660108917631  C 23.453826221381 10.5154059695048  21.8785451717346 9.54483419552079  23.7140558556489 8.15023825731793  C 25.2893646545123 6.95334015611735  26.2428847404963 8.94582378707238  27.8112860590737 7.74615384615385  C 30.7831795318119 5.47295296024145  30.968010676531 0.543999008230323  30.6615331571084 0.393260721579326  " stroke-width="5" stroke="#dd125b" fill="none" transform="matrix(1 0 0 1 129 236 )" />
  </g>
</svg>