<?xml version="1.0" encoding="utf-8"?>
<svg version="1.1" xmlns:xlink="http://www.w3.org/1999/xlink" width="98px" height="151px" xmlns="http://www.w3.org/2000/svg">
  <g transform="matrix(1 0 0 1 -1028 -347 )">
    <path d="M 0.938053097345119 129.283185840708  C 1.09788878364111 129.382206380015  5.95280235988207 121.613569321534  8.46017699115055 117.778761061947  C 10.5250737463127 114.238938053097  12.8308824555209 113.573955931297  14.6548672566373 107.159292035398  C 16.6249322846593 100.230887259168  14.8849557522124 98.3097345132743  15 93.8849557522124  C 14.1474926253688 90.787610619469  7.18875322056715 94.0339419737874  12.4424778761063 84.5929203539823  C 17.6962025316454 75.1518987341772  20.7020648967552 69.8436578171092  24.8318584070798 62.4690265486726  C 26.1592920353985 60.1091445427729  25.5206464985477 58.0252219796394  28.8141592920356 55.3893805309735  C 32.5603307355193 52.3912704328234  34.1778503884161 55.8603986796733  37.6637168141594 52.7345132743363  C 42.3767083251114 48.5082264405198  38.5055644681336 46.7194486880766  42.5309734513276 41.2300884955753  C 47.5883020333818 34.3335226274532  49.5007405255028 37.982661960579  54.4778761061948 31.0530973451328  C 58.2562780337528 25.7925052082193  54.3434831685022 23.4118574607114  58.9026548672568 19.9911504424779  C 62.8155186579822 17.0553626470803  65.1839395167167 21.942586647536  69.0796460176991 19  C 76.4614459338554 13.4242242421017  76.9205426481576 1.33433718999891  76.1592920353983 0.964601769911553  " stroke-width="20" stroke="#dd125b" fill="none" transform="matrix(1 0 0 1 1038 357 )" />
  </g>
</svg>