<?xml version="1.0" encoding="utf-8"?>
<svg version="1.1" xmlns:xlink="http://www.w3.org/1999/xlink" width="100px" height="95px" xmlns="http://www.w3.org/2000/svg">
  <g transform="matrix(1 0 0 1 -1364 -132 )">
    <path d="M 1364 132  L 1464 132  L 1464 227  L 1364 227  L 1364 132  " fill-rule="nonzero" fill="#cccccc" stroke="none" />
    <path d="M 1371 139  L 1457 139  L 1457 220  L 1371 220  L 1371 139  " fill-rule="nonzero" fill="#ffffff" stroke="none" />
    <path d="M 1423.125 160.5  C 1419.135 160.5  1416 157.365  1416 153.375  C 1416 149.385  1419.135 146.25  1423.125 146.25  C 1427.115 146.25  1430.25 149.385  1430.25 153.375  C 1430.25 157.365  1427.115 160.5  1423.125 160.5  " fill-rule="nonzero" fill="#cccccc" stroke="none" />
    <path d="M 1374 218  L 1374 176.2  L 1394.25 157.2  L 1422.6 174.68  L 1438.8 168.6  L 1455 174.68  L 1455 218  L 1374 218  " fill-rule="nonzero" fill="#169bd5" stroke="none" />
  </g>
</svg>