<?xml version="1.0" encoding="utf-8"?>
<svg version="1.1" xmlns:xlink="http://www.w3.org/1999/xlink" width="177px" height="198px" xmlns="http://www.w3.org/2000/svg">
  <g transform="matrix(1 0 0 1 -943 -554 )">
    <path d="M 0 35.9989201146442  C 0.384923803873024 31.9392631109537  8.6912260343753 35.7195979945877  15.1898734177216 30.1141871529466  C 24.0797609813621 22.4462111587574  17.5586916601215 19.0782093263586  26.1603375527426 10.7786359930833  C 33.8786437956384 3.33138119193603  33.3188625787477 4.20053743274155  43.8818565400844 1.53119848184433  C 54.1310905044322 -1.05885122736045  56.8213783403657 1.34624973161954  63.2911392405063 1.25377535650711  C 68.6357243319269 1.34624973161954  71.345513634782 -1.36092870573503  79.324894514768 1.53119848184433  C 90.6700781451049 5.64326112415737  91.1392405063292 11.0588613722117  97.0464135021097 15.8226928173955  C 101.54711673699 18.9051719878085  106.047819971871 21.9876511582215  110.548523206751 25.0701303286345  C 112.798874824191 26.7514826034052  114.531735110724 26.5163162873311  117.299578059072 30.1141871529466  C 121.771165190206 35.9267254227848  118.012591993972 36.7589764703068  122.362869198312 42.7243292137271  C 126.569085391893 48.4921371329006  125.964828476509 48.6643173169357  132.489451476793 51.1310905875807  C 138.339955715043 53.342998842522  139.113527249367 48.6794960898662  144.303797468354 51.4925813266564  C 149.516243364746 54.3176856044767  148.804500703235 57.9769965996888  151.054852320675 61.2192042362051  C 153.305203938115 64.5819087857465  155.915611814346 65.0878130334844  157.805907172996 71.3073178848294  C 160.165138387321 79.0697291481253  159.014181587886 78.1400456079664  157.805907172996 86.4394883577659  C 155.915611814346 99.4236233489511  150.363055176974 96.6730586614939  151.054852320675 109.137744067171  C 151.56130239118 118.262876860798  155.76650184584 115.787792550449  157.805907172996 125.110590677493  C 159.389460277168 132.349537108138  156.713269888207 131.290989944134  158.2194092827 138.561408875658  C 160.141694804132 147.840643651606  162.444444444444 149.20997328254  164.556962025316 154.53425548598  C 164.556962025316 157.056283898136  164.556962025316 159.578312310292  164.556962025316 162.100340722448  C 164.556962025316 166.303721409375  167.727083714936 169.600603454396  164.556962025316 174.710482783229  C 158.886075949367 183.851312812103  151.054852320675 181.435891882312  144.303797468354 184.798596431853  C 142.85640552044 185.532397621236  141.409013572525 186.266198810618  139.961621624611 187  C 139.043637429423 186.487576860129  138.125653234235 185.975153720258  137.207669039047 185.462730580388  C 137.014493234495 184.798677656601  136.821317429942 184.134624732814  136.62814162539 183.470571809027  C 139.186693573045 180.550542133761  144.384585181934 179.54348648041  144.303797468354 174.710482783229  C 144.183954170783 167.54103739876  137.707268784712 170.070453388693  132.489451476793 162.100340722448  C 124.742661013992 150.26727161583  126.414518893218 152.219898052511  122.362869198312 138.561408875658  C 117.639896398311 122.639826871052  125.829706949938 121.811110041755  117.299578059072 109.137744067171  " stroke-width="10" stroke="#dd125b" fill="none" transform="matrix(1 0 0 1 948 559 )" />
  </g>
</svg>