<?xml version="1.0" encoding="utf-8"?>
<svg version="1.1" xmlns:xlink="http://www.w3.org/1999/xlink" width="72px" height="72px" xmlns="http://www.w3.org/2000/svg">
  <g transform="matrix(1 0 0 1 -132 -627 )">
    <path d="M 168 627  C 188.16 627  204 642.84  204 663  C 204 683.16  188.16 699  168 699  C 147.84 699  132 683.16  132 663  C 132 642.84  147.84 627  168 627  Z " fill-rule="nonzero" fill="#ffffff" stroke="none" fill-opacity="0" />
    <path d="M 168 627.5  C 187.88 627.5  203.5 643.12  203.5 663  C 203.5 682.88  187.88 698.5  168 698.5  C 148.12 698.5  132.5 682.88  132.5 663  C 132.5 643.12  148.12 627.5  168 627.5  Z " stroke-width="1" stroke="#797979" fill="none" />
  </g>
</svg>