<?xml version="1.0" encoding="utf-8"?>
<svg version="1.1" xmlns:xlink="http://www.w3.org/1999/xlink" width="30px" height="17px" xmlns="http://www.w3.org/2000/svg">
  <g transform="matrix(1 0 0 1 -1861 -967 )">
    <path d="M 29.443359375 13.7829861111111  C 29.814453125 14.1568287037037  30 14.599537037037  30 15.1111111111111  C 30 15.6226851851852  29.814453125 16.0653935185185  29.443359375 16.4392361111111  C 29.072265625 16.8130787037037  28.6328125 17  28.125 17  L 1.875 17  C 1.3671875 17  0.927734375 16.8130787037037  0.556640625 16.4392361111111  C 0.185546875 16.0653935185185  0 15.6226851851852  0 15.1111111111111  C 0 14.599537037037  0.185546875 14.1568287037037  0.556640625 13.7829861111111  L 13.681640625 0.56076388888889  C 14.052734375 0.186921296296294  14.4921875 0  15 0  C 15.5078125 0  15.947265625 0.186921296296294  16.318359375 0.56076388888889  L 29.443359375 13.7829861111111  Z " fill-rule="nonzero" fill="#ffffff" stroke="none" transform="matrix(1 0 0 1 1861 967 )" />
  </g>
</svg>