<?xml version="1.0" encoding="utf-8"?>
<svg version="1.1" xmlns:xlink="http://www.w3.org/1999/xlink" width="149px" height="166px" xmlns="http://www.w3.org/2000/svg">
  <g transform="matrix(1 0 0 1 -952.5 -277.5 )">
    <path d="M 0 28.8761391293937  C 0.308402806717543 25.6197297681446  6.96345218416816 28.6520839528778  12.1701997864878 24.1557650959465  C 19.2928205453082 18.004982212907  14.0681083782901 15.3033764649935  20.9597885211733 8.64596470033421  C 27.143732679638 2.67223090262248  26.6952332709243 3.36941505300125  35.1583549387423 1.22823407634572  C 43.3700905848764 -0.849345904299822  45.5255621642689 1.07987946386594  50.7091657770321 1.00570215762602  C 54.9912731093149 1.07987946386594  57.162369357988 -1.09165404203344  63.5554877738804 1.22823407634572  C 72.6453035740901 4.52668004611553  73.0211987189264 8.87074441621262  77.7540541914493 12.6919995861461  C 81.3600393133716 15.1645764608089  84.9660244352939 17.6371533354718  88.5720095572162 20.1097302101346  C 90.3750021181773 21.4584085054052  91.7633781308816 21.2697724229929  93.9809872400996 24.1557650959465  C 97.5636443993822 28.8182289487579  94.5522574409536 29.4858100029199  98.0377205022623 34.2708523104763  C 101.40776118748 38.8974362028615  100.923627634793 39.0355486499484  106.151187026587 41.0142437868294  C 110.838639217474 42.7885017453385  111.45842845883 39.0477241362563  115.616897971633 41.3042096203126  C 119.793134744043 43.5703360463717  119.222883093556 46.5056122457397  121.025875654517 49.1063135584533  C 122.828868215478 51.8036701489945  124.920339586193 52.2094756953084  126.4348533374 57.1983833300771  C 128.325080756106 63.4249164289775  127.402928621619 62.679180968957  126.4348533374 69.3364879875128  C 124.920339586193 79.7515695312442  120.471604449021 77.5452342204496  121.025875654517 87.5436449736663  C 121.431645891728 94.8632702091963  124.800871960824 92.8779084629271  126.4348533374 100.356088778737  C 127.703603716044 106.162730300645  125.559427079105 105.313628297434  126.766153220477 111.145515140902  C 128.306297644274 118.588751592197  130.151271753681 119.687144344283  131.843831020284 123.957958945974  C 131.843831020284 125.980976388879  131.843831020284 128.003993831785  131.843831020284 130.027011274691  C 131.843831020284 133.398707012868  134.383747795702 136.043264802991  131.843831020284 140.142098489221  C 127.300289766662 147.474315089922  121.025875654517 145.536811670304  115.616897971633 148.234168260845  C 114.457240567581 148.822778840563  113.297583163529 149.411389420282  112.137925759477 150  C 111.402432398273 149.588965395826  110.666939037068 149.177930791651  109.931445675863 148.766896187477  C 109.776672290288 148.234233414386  109.621898904713 147.701570641295  109.467125519138 147.168907868204  C 111.51704966997 144.826638075209  115.681625477092 144.018839422789  115.616897971633 140.142098489221  C 115.520878944061 134.391206469593  110.3317273998 136.420149777027  106.151187026587 130.027011274691  C 99.9444211738611 120.535244611628  101.283921763844 122.101522502014  98.0377205022623 111.145515140902  C 94.2536519335867 98.3741926773148  100.815367616516 97.7094465575572  93.9809872400996 87.5436449736663  " stroke-width="15" stroke="#dd125b" fill="none" transform="matrix(1 0 0 1 960 285 )" />
  </g>
</svg>