<?xml version="1.0" encoding="utf-8"?>
<svg version="1.1" xmlns:xlink="http://www.w3.org/1999/xlink" width="12px" height="12px" viewBox="575 255  12 12" xmlns="http://www.w3.org/2000/svg">
  <path d="M 581 255  C 584.36 255  587 257.64  587 261  C 587 264.36  584.36 267  581 267  C 577.64 267  575 264.36  575 261  C 575 257.64  577.64 255  581 255  Z " fill-rule="nonzero" fill="#ffffff" stroke="none" />
  <path d="M 581 255.5  C 584.08 255.5  586.5 257.92  586.5 261  C 586.5 264.08  584.08 266.5  581 266.5  C 577.92 266.5  575.5 264.08  575.5 261  C 575.5 257.92  577.92 255.5  581 255.5  Z " stroke-width="1" stroke="#797979" fill="none" />
  <path d="M 581 264  C 579.32 264  578 262.68  578 261  C 578 259.32  579.32 258  581 258  C 582.68 258  584 259.32  584 261  C 584 262.68  582.68 264  581 264  " fill-rule="nonzero" fill="#797979" stroke="none" />
</svg>